<?xml version="1.0" encoding="UTF-8"?>
<!DOCTYPE svg PUBLIC "-//W3C//DTD SVG 1.1//EN" "http://www.w3.org/Graphics/SVG/1.1/DTD/svg11.dtd">
<svg xmlns="http://www.w3.org/2000/svg" version="1.1" width="512px" height="512px" style="shape-rendering:geometricPrecision; text-rendering:geometricPrecision; image-rendering:optimizeQuality; fill-rule:evenodd; clip-rule:evenodd" xmlns:xlink="http://www.w3.org/1999/xlink">
<g><path style="opacity:0.998" fill="#46a4ff" d="M 197.5,8.5 C 198.404,132.619 198.404,256.619 197.5,380.5C 194.167,376.5 190.5,372.833 186.5,369.5C 186.489,367.983 185.823,366.816 184.5,366C 185.833,352 185.833,338 184.5,324C 187.07,322.651 187.07,321.484 184.5,320.5C 184.333,217.833 184.5,115.166 185,12.5C 185.785,10.714 186.951,9.21398 188.5,8C 191.696,7.19549 194.696,7.36216 197.5,8.5 Z"/></g>
<g><path style="opacity:0.998" fill="#49a1ff" d="M 197.5,8.5 C 199.903,8.44805 202.236,8.78138 204.5,9.5C 204.047,10.4584 203.381,11.2917 202.5,12C 202.833,139 203.167,266 203.5,393C 202.906,393.464 202.239,393.631 201.5,393.5C 201.245,388.809 199.912,384.476 197.5,380.5C 198.404,256.619 198.404,132.619 197.5,8.5 Z"/></g>
<g><path style="opacity:0.998" fill="#4d9fff" d="M 204.5,9.5 C 210.13,10.9909 215.797,12.3243 221.5,13.5C 220.931,164.049 220.598,314.549 220.5,465C 222.537,464.517 224.537,463.684 226.5,462.5C 220.812,471.521 213.479,478.855 204.5,484.5C 203.761,484.631 203.094,484.464 202.5,484C 202.736,455.882 202.736,427.715 202.5,399.5C 202.675,397.379 202.341,395.379 201.5,393.5C 202.239,393.631 202.906,393.464 203.5,393C 203.167,266 202.833,139 202.5,12C 203.381,11.2917 204.047,10.4584 204.5,9.5 Z"/></g>
<g><path style="opacity:0.997" fill="#549aff" d="M 221.5,13.5 C 227.496,14.8322 233.496,16.1655 239.5,17.5C 239.082,18.2216 238.416,18.7216 237.5,19C 238.833,157 238.833,295 237.5,433C 238.094,433.464 238.761,433.631 239.5,433.5C 237.057,444.05 232.724,453.716 226.5,462.5C 224.537,463.684 222.537,464.517 220.5,465C 220.598,314.549 220.931,164.049 221.5,13.5 Z"/></g>
<g><path style="opacity:0.992" fill="#5996ff" d="M 239.5,17.5 C 244.334,18.5391 249.001,19.8725 253.5,21.5C 254.262,67.2837 254.595,112.95 254.5,158.5C 250.55,157.888 246.717,156.888 243,155.5C 242.667,244.5 242.333,333.5 242,422.5C 241.591,426.302 240.757,429.969 239.5,433.5C 238.761,433.631 238.094,433.464 237.5,433C 238.833,295 238.833,157 237.5,19C 238.416,18.7216 239.082,18.2216 239.5,17.5 Z"/></g>
<g><path style="opacity:0.996" fill="#6090ff" d="M 253.5,21.5 C 258.893,22.1817 264.227,23.1817 269.5,24.5C 269.047,25.4584 268.381,26.2917 267.5,27C 268.598,71.7845 268.598,116.618 267.5,161.5C 263.035,160.967 258.702,159.967 254.5,158.5C 254.595,112.95 254.262,67.2837 253.5,21.5 Z"/></g>
<g><path style="opacity:0.996" fill="#678cff" d="M 269.5,24.5 C 274.812,25.8281 280.146,27.1614 285.5,28.5C 285.828,74.2387 285.495,119.905 284.5,165.5C 278.699,164.633 273.033,163.3 267.5,161.5C 268.598,116.618 268.598,71.7845 267.5,27C 268.381,26.2917 269.047,25.4584 269.5,24.5 Z"/></g>
<g><path style="opacity:0.996" fill="#6d87ff" d="M 285.5,28.5 C 290.162,29.4992 294.829,30.4992 299.5,31.5C 299.833,77.5 300.167,123.5 300.5,169.5C 295.071,168.476 289.738,167.143 284.5,165.5C 285.495,119.905 285.828,74.2387 285.5,28.5 Z"/></g>
<g><path style="opacity:0.994" fill="#7382ff" d="M 299.5,31.5 C 304.5,32.8333 309.5,34.1667 314.5,35.5C 314.405,81.0496 314.738,126.716 315.5,172.5C 310.4,171.975 305.4,170.975 300.5,169.5C 300.167,123.5 299.833,77.5 299.5,31.5 Z"/></g>
<g><path style="opacity:0.995" fill="#797eff" d="M 314.5,35.5 C 320.095,36.2321 325.429,37.5654 330.5,39.5C 330.172,85.2387 330.505,130.905 331.5,176.5C 325.905,175.768 320.571,174.435 315.5,172.5C 314.738,126.716 314.405,81.0496 314.5,35.5 Z"/></g>
<g><path style="opacity:0.995" fill="#8079ff" d="M 330.5,39.5 C 335.584,40.1168 340.584,41.1168 345.5,42.5C 345.953,43.4584 346.619,44.2917 347.5,45C 346.167,89.6667 346.167,134.333 347.5,179C 346.906,179.464 346.239,179.631 345.5,179.5C 340.675,179.126 336.008,178.126 331.5,176.5C 330.505,130.905 330.172,85.2387 330.5,39.5 Z"/></g>
<g><path style="opacity:0.994" fill="#8674ff" d="M 345.5,42.5 C 351.167,43.8333 356.833,45.1667 362.5,46.5C 361.167,92.1667 361.167,137.833 362.5,183.5C 356.544,182.913 350.878,181.579 345.5,179.5C 346.239,179.631 346.906,179.464 347.5,179C 346.167,134.333 346.167,89.6667 347.5,45C 346.619,44.2917 345.953,43.4584 345.5,42.5 Z"/></g>
<g><path style="opacity:0.996" fill="#8c70ff" d="M 362.5,46.5 C 367.673,47.5945 372.673,48.9278 377.5,50.5C 377.047,51.4584 376.381,52.2917 375.5,53C 376.736,97.6179 376.736,142.118 375.5,186.5C 370.88,186.26 366.547,185.26 362.5,183.5C 361.167,137.833 361.167,92.1667 362.5,46.5 Z"/></g>
<g><path style="opacity:0.995" fill="#926cfe" d="M 377.5,50.5 C 382.584,51.1168 387.584,52.1168 392.5,53.5C 392.047,54.4584 391.381,55.2917 390.5,56C 390.833,99.6667 391.167,143.333 391.5,187C 390.692,188.706 389.359,189.539 387.5,189.5C 383.239,189.102 379.239,188.102 375.5,186.5C 376.736,142.118 376.736,97.6179 375.5,53C 376.381,52.2917 377.047,51.4584 377.5,50.5 Z"/></g>
<g><path style="opacity:0.984" fill="#9966ff" d="M 392.5,53.5 C 397.673,54.5945 402.673,55.9278 407.5,57.5C 406.737,150.881 406.737,244.548 407.5,338.5C 402.53,334.517 396.864,331.85 390.5,330.5C 390.736,315.618 390.736,300.785 390.5,286C 391.381,285.292 392.047,284.458 392.5,283.5C 394.258,283.877 395.925,284.544 397.5,285.5C 398.833,254.5 398.833,223.5 397.5,192.5C 394.046,191.487 390.713,190.487 387.5,189.5C 389.359,189.539 390.692,188.706 391.5,187C 391.167,143.333 390.833,99.6667 390.5,56C 391.381,55.2917 392.047,54.4584 392.5,53.5 Z"/></g>
<g><path style="opacity:0.993" fill="#9f62fe" d="M 407.5,57.5 C 412.832,58.4995 418.165,59.4995 423.5,60.5C 422.737,61.2679 421.737,61.7679 420.5,62C 421.069,190.451 421.402,318.951 421.5,447.5C 417.394,451.254 412.727,454.254 407.5,456.5C 407.742,434.21 407.408,412.21 406.5,390.5C 412.499,382.007 415.832,372.507 416.5,362C 416.309,357.379 415.476,352.879 414,348.5C 411.978,344.997 409.811,341.663 407.5,338.5C 406.737,244.548 406.737,150.881 407.5,57.5 Z"/></g>
<g><path style="opacity:0.999" fill="#a55efe" d="M 423.5,60.5 C 427.4,61.8084 431.4,62.8084 435.5,63.5C 435.832,185.835 435.499,308.002 434.5,430C 435.244,431.039 436.244,431.539 437.5,431.5C 432.597,437.349 427.263,442.682 421.5,447.5C 421.402,318.951 421.069,190.451 420.5,62C 421.737,61.7679 422.737,61.2679 423.5,60.5 Z"/></g>
<g><path style="opacity:0.998" fill="#ab59fe" d="M 435.5,63.5 C 439.793,64.6566 444.127,65.6566 448.5,66.5C 447.168,181.931 447.168,297.264 448.5,412.5C 445.603,419.297 441.936,425.63 437.5,431.5C 436.244,431.539 435.244,431.039 434.5,430C 435.499,308.002 435.832,185.835 435.5,63.5 Z"/></g>
<g><path style="opacity:0.924" fill="#b056ff" d="M 448.5,66.5 C 452.845,67.0785 455.679,69.4118 457,73.5C 457.667,176.5 457.667,279.5 457,382.5C 456.008,393.151 453.175,403.151 448.5,412.5C 447.168,297.264 447.168,181.931 448.5,66.5 Z"/></g>
<g><path style="opacity:0.987" fill="#8674ff" d="M 362.5,278.5 C 361.832,298.501 361.832,318.334 362.5,338C 361.906,338.464 361.239,338.631 360.5,338.5C 355.878,335.024 350.878,332.357 345.5,330.5C 346.289,330.217 346.956,329.717 347.5,329C 347.264,312.882 347.264,296.715 347.5,280.5C 352.29,279.275 357.29,278.608 362.5,278.5 Z"/></g>
<g><path style="opacity:0.992" fill="#8c70ff" d="M 362.5,278.5 C 366.842,278.739 371.176,279.073 375.5,279.5C 376.404,296.952 376.404,314.285 375.5,331.5C 370.787,333.619 366.62,336.619 363,340.5C 361.699,340.361 360.866,339.695 360.5,338.5C 361.239,338.631 361.906,338.464 362.5,338C 361.832,318.334 361.832,298.501 362.5,278.5 Z"/></g>
<g><path style="opacity:0.987" fill="#926cff" d="M 375.5,279.5 C 381.278,280.361 386.944,281.694 392.5,283.5C 392.047,284.458 391.381,285.292 390.5,286C 390.736,300.785 390.736,315.618 390.5,330.5C 385.453,330.337 380.453,330.671 375.5,331.5C 376.404,314.285 376.404,296.952 375.5,279.5 Z"/></g>
<g><path style="opacity:0.987" fill="#8079ff" d="M 347.5,280.5 C 347.264,296.715 347.264,312.882 347.5,329C 346.956,329.717 346.289,330.217 345.5,330.5C 340.463,330.413 335.463,330.746 330.5,331.5C 330.5,315.833 330.5,300.167 330.5,284.5C 335.961,282.385 341.627,281.052 347.5,280.5 Z"/></g>
<g><path style="opacity:0.987" fill="#797eff" d="M 330.5,284.5 C 330.5,300.167 330.5,315.833 330.5,331.5C 324.711,333.567 319.711,336.901 315.5,341.5C 315.503,324.997 315.17,308.663 314.5,292.5C 319.281,288.895 324.614,286.229 330.5,284.5 Z"/></g>
<g><path style="opacity:0.983" fill="#7382ff" d="M 314.5,292.5 C 315.17,308.663 315.503,324.997 315.5,341.5C 306.176,356.299 306.509,370.966 316.5,385.5C 315.761,385.369 315.094,385.536 314.5,386C 314.736,408.785 314.736,431.618 314.5,454.5C 308.652,451.985 303.652,448.318 299.5,443.5C 300.598,397.285 300.598,351.118 299.5,305C 300.823,304.184 301.489,303.017 301.5,301.5C 305.302,297.763 309.635,294.763 314.5,292.5 Z"/></g>
<g><path style="opacity:0.99" fill="#6d87ff" d="M 301.5,301.5 C 301.489,303.017 300.823,304.184 299.5,305C 300.598,351.118 300.598,397.285 299.5,443.5C 293.722,439.06 289.055,433.727 285.5,427.5C 285.938,427.565 286.272,427.399 286.5,427C 285.836,391.402 285.17,355.902 284.5,320.5C 289.083,313.247 294.75,306.914 301.5,301.5 Z"/></g>
<g><path style="opacity:0.985" fill="#34b1ff" d="M 150.5,314.5 C 149.512,334.758 149.179,355.091 149.5,375.5C 149.44,376.043 149.107,376.376 148.5,376.5C 143.66,371.08 137.66,367.747 130.5,366.5C 129.932,350.62 129.599,334.787 129.5,319C 130.381,318.292 131.047,317.458 131.5,316.5C 137.594,314.906 143.928,314.239 150.5,314.5 Z"/></g>
<g><path style="opacity:0.987" fill="#3bacff" d="M 150.5,314.5 C 157.108,314.613 163.441,315.613 169.5,317.5C 168.711,317.783 168.044,318.283 167.5,319C 167.599,334.787 167.932,350.62 168.5,366.5C 160.775,366.627 154.442,369.627 149.5,375.5C 149.179,355.091 149.512,334.758 150.5,314.5 Z"/></g>
<g><path style="opacity:0.987" fill="#2eb6ff" d="M 131.5,316.5 C 131.047,317.458 130.381,318.292 129.5,319C 129.599,334.787 129.932,350.62 130.5,366.5C 125.254,365.857 119.92,366.19 114.5,367.5C 113.448,367.649 112.448,367.483 111.5,367C 111.736,352.215 111.736,337.382 111.5,322.5C 117.653,319.119 124.319,317.119 131.5,316.5 Z"/></g>
<g><path style="opacity:0.984" fill="#41a7ff" d="M 169.5,317.5 C 174.323,318.218 178.99,319.551 183.5,321.5C 184.107,321.376 184.44,321.043 184.5,320.5C 187.07,321.484 187.07,322.651 184.5,324C 185.833,338 185.833,352 184.5,366C 185.823,366.816 186.489,367.983 186.5,369.5C 180.586,366.992 174.586,365.992 168.5,366.5C 167.932,350.62 167.599,334.787 167.5,319C 168.044,318.283 168.711,317.783 169.5,317.5 Z"/></g>
<g><path style="opacity:0.976" fill="#678cff" d="M 284.5,320.5 C 285.17,355.902 285.836,391.402 286.5,427C 286.272,427.399 285.938,427.565 285.5,427.5C 273.199,410.087 267.199,390.587 267.5,369C 268.733,351.127 274.4,334.96 284.5,320.5 Z"/></g>
<g><path style="opacity:0.994" fill="#27bbff" d="M 111.5,322.5 C 111.736,337.382 111.736,352.215 111.5,367C 112.448,367.483 113.448,367.649 114.5,367.5C 95.2915,377.633 89.7915,392.966 98,413.5C 101.877,421.529 106.71,428.862 112.5,435.5C 112.5,455.833 112.5,476.167 112.5,496.5C 102.182,492.833 93.1819,487.167 85.5,479.5C 85.5,432.5 85.5,385.5 85.5,338.5C 90.703,333.811 96.3696,329.644 102.5,326C 105.309,324.259 108.309,323.092 111.5,322.5 Z"/></g>
<g><path style="opacity:0.992" fill="#22c0ff" d="M 85.5,338.5 C 85.5,385.5 85.5,432.5 85.5,479.5C 64.1912,460.695 53.5246,436.862 53.5,408C 54.0679,380.039 64.7345,356.873 85.5,338.5 Z"/></g>
<g><path style="opacity:0.989" fill="#797eff" d="M 316.5,385.5 C 319.107,390.374 322.44,394.708 326.5,398.5C 326.886,400.937 328.053,402.937 330,404.5C 330.5,423.83 330.667,443.164 330.5,462.5C 324.578,460.765 319.245,458.098 314.5,454.5C 314.736,431.618 314.736,408.785 314.5,386C 315.094,385.536 315.761,385.369 316.5,385.5 Z"/></g>
<g><path style="opacity:0.987" fill="#9966fe" d="M 406.5,390.5 C 407.408,412.21 407.742,434.21 407.5,456.5C 402.5,459.327 397.166,461.661 391.5,463.5C 391.167,444.833 390.833,426.167 390.5,407.5C 395.833,401.833 401.167,396.167 406.5,390.5 Z"/></g>
<g><path style="opacity:0.988" fill="#7f79ff" d="M 326.5,398.5 C 332.911,405.249 339.911,411.249 347.5,416.5C 347.167,433.167 346.833,449.833 346.5,466.5C 340.989,465.789 335.655,464.455 330.5,462.5C 330.667,443.164 330.5,423.83 330,404.5C 328.053,402.937 326.886,400.937 326.5,398.5 Z"/></g>
<g><path style="opacity:0.989" fill="#926cff" d="M 390.5,407.5 C 390.833,426.167 391.167,444.833 391.5,463.5C 386.992,465.126 382.325,466.126 377.5,466.5C 377.082,465.778 376.416,465.278 375.5,465C 376.598,449.549 376.598,434.049 375.5,418.5C 380.196,414.479 385.196,410.812 390.5,407.5 Z"/></g>
<g><path style="opacity:0.992" fill="#47a3ff" d="M 202.5,399.5 C 202.736,427.715 202.736,455.882 202.5,484C 203.094,484.464 203.761,484.631 204.5,484.5C 199.848,488.831 194.514,492.165 188.5,494.5C 186.804,494.315 185.471,493.481 184.5,492C 185.833,474 185.833,456 184.5,438C 186.373,437.047 186.706,435.88 185.5,434.5C 190.23,428.591 194.397,422.257 198,415.5C 200.059,410.179 201.559,404.845 202.5,399.5 Z"/></g>
<g><path style="opacity:0.984" fill="#8674ff" d="M 347.5,416.5 C 352.313,420.24 357.647,422.907 363.5,424.5C 363.047,425.458 362.381,426.292 361.5,427C 361.5,440.333 361.5,453.667 361.5,467C 362.416,467.278 363.082,467.778 363.5,468.5C 357.794,468.03 352.127,467.363 346.5,466.5C 346.833,449.833 347.167,433.167 347.5,416.5 Z"/></g>
<g><path style="opacity:0.98" fill="#8c70ff" d="M 375.5,418.5 C 376.598,434.049 376.598,449.549 375.5,465C 376.416,465.278 377.082,465.778 377.5,466.5C 372.888,467.296 368.221,467.963 363.5,468.5C 363.082,467.778 362.416,467.278 361.5,467C 361.5,453.667 361.5,440.333 361.5,427C 362.381,426.292 363.047,425.458 363.5,424.5C 367.527,422.487 371.527,420.487 375.5,418.5 Z"/></g>
<g><path style="opacity:0.992" fill="#2db6ff" d="M 112.5,435.5 C 118.858,440.863 125.192,446.196 131.5,451.5C 130.711,451.783 130.044,452.283 129.5,453C 129.736,469.118 129.736,485.285 129.5,501.5C 123.328,501.211 117.662,499.544 112.5,496.5C 112.5,476.167 112.5,455.833 112.5,435.5 Z"/></g>
<g><path style="opacity:0.996" fill="#40a8ff" d="M 185.5,434.5 C 186.706,435.88 186.373,437.047 184.5,438C 185.833,456 185.833,474 184.5,492C 185.471,493.481 186.804,494.315 188.5,494.5C 182.616,497.798 176.282,500.131 169.5,501.5C 169.047,500.542 168.381,499.708 167.5,499C 167.5,483 167.5,467 167.5,451C 168.381,450.292 169.047,449.458 169.5,448.5C 174.793,443.843 180.126,439.177 185.5,434.5 Z"/></g>
<g><path style="opacity:0.982" fill="#3bacff" d="M 169.5,448.5 C 169.047,449.458 168.381,450.292 167.5,451C 167.5,467 167.5,483 167.5,499C 168.381,499.708 169.047,500.542 169.5,501.5C 162.59,502.993 155.59,503.659 148.5,503.5C 149.483,488.912 149.816,474.245 149.5,459.5C 156.488,456.341 163.154,452.674 169.5,448.5 Z"/></g>
<g><path style="opacity:0.986" fill="#34b1ff" d="M 131.5,451.5 C 135.778,453.977 140.112,456.477 144.5,459C 146.134,459.494 147.801,459.66 149.5,459.5C 149.816,474.245 149.483,488.912 148.5,503.5C 141.918,503.844 135.584,503.177 129.5,501.5C 129.736,485.285 129.736,469.118 129.5,453C 130.044,452.283 130.711,451.783 131.5,451.5 Z"/></g>
</svg>
